PathFileType	4	(X/Y/Z)	RBDS021\RBDS021runT25.trc
DataRate	CameraRate	NumFrames	NumMarkers	Units	OrigDataRate	OrigDataStartFrame	OrigNumFrames
150.000000	150.000000	4	33	mm	150.000000	2250	4500
Frame#	Time	L.ASIS			L.Heel.Bottom			L.Heel.Lateral			L.Heel.Top			L.Iliac.Crest			L.MT1			L.MT5			L.PSIS			L.Shank.Bottom.Lateral			L.Shank.Bottom.Medial			L.Shank.Top.Lateral			L.Shank.Top.Medial			L.Thigh.Bottom.Lateral			L.Thigh.Bottom.Medial			L.Thigh.Top.Lateral			L.Thigh.Top.Medial			R.ASIS			R.ASY			R.Heel.Bottom			R.Heel.Lateral			R.Heel.Top			R.Iliac.Crest			R.MT1			R.MT5			R.PSIS			R.Shank.Bottom.Lateral			R.Shank.Bottom.Medial			R.Shank.Top.Lateral			R.Shank.Top.Medial			R.Thigh.Bottom.Lateral			R.Thigh.Bottom.Medial			R.Thigh.Top.Lateral			R.Thigh.Top.Medial			
		X1	Y1	Z1	X2	Y2	Z2	X3	Y3	Z3	X4	Y4	Z4	X5	Y5	Z5	X6	Y6	Z6	X7	Y7	Z7	X8	Y8	Z8	X9	Y9	Z9	X10	Y10	Z10	X11	Y11	Z11	X12	Y12	Z12	X13	Y13	Z13	X14	Y14	Z14	X15	Y15	Z15	X16	Y16	Z16	X17	Y17	Z17	X18	Y18	Z18	X19	Y19	Z19	X20	Y20	Z20	X21	Y21	Z21	X22	Y22	Z22	X23	Y23	Z23	X24	Y24	Z24	X25	Y25	Z25	X26	Y26	Z26	X27	Y27	Z27	X28	Y28	Z28	X29	Y29	Z29	X30	Y30	Z30	X31	Y31	Z31	X32	Y32	Z32	X33	Y33	Z33	

2251	15	1853.341832072997	944.7292313264418	901.58307477387	1352.958426165645	414.4008731731393	1009.450155471731	1360.186037817829	405.8431306622541	953.0591712604678	1397.587256783004	409.5614770801261	993.6846187573451	1807.321529858297	1025.381729682636	853.8436043940608	1368.935574252429	200.9769720730419	959.5330457113103	1334.030158392069	270.9554963174843	874.5728296533598	1677.406526316061	986.6367412755884	964.7234389738292	1474.423384198936	386.6539249265566	899.0719600971246	1475.186969621792	415.7485481231166	946.5705162158187	1546.928462176856	416.0654204584931	881.2763344080375	1547.968274767269	445.0538928353999	926.3783035298623	1782.919727807294	575.1292256799236	835.0547219095461	1724.237781650223	578.7593744277513	875.5079004141038	1774.391947361175	683.4119064751015	816.4539150694389	1717.157901726706	686.9565912102142	854.2724120934478	1853.071870286763	953.9030840513159	1115.985928767366	1896.943304598237	76.11521768640995	1050.165187886908	1726.898627088105	30.54765673760767	984.857940235317	1740.337966129331	47.70719975971278	1036.65377082584	1736.433653790376	74.66456691114966	989.1627854351603	1805.443242859048	1014.151967839319	1166.641851026591	1939.333764227754	40.84466466933791	1007.987081647776	1882.649128209114	35.49877530566498	1110.763237699612	1674.180743347772	986.3528246691859	1046.292784759182	1794.351341728113	165.9003003931827	1077.969578408774	1773.162789205523	185.3613847921685	1035.119970773911	1808.007422015747	244.9712894088183	1105.646317063033	1782.769169606479	260.4727176891061	1061.203938929936	1855.138439865888	604.063885478814	1169.507568911253	1797.337533087755	582.5396260812555	1130.223250747728	1806.580500170463	701.5593565171947	1182.860097392522	1752.3056786462	681.566141999707	1144.397915261496	
2252	15.00666666666667	1851.13546809706	938.840913171142	902.4751368091013	1365.165429983385	418.1139496378001	1006.473331886737	1373.084666383237	409.050004538615	950.3905110537111	1409.923506720604	412.7473551380578	991.518468577	1805.422521516306	1017.71551383661	853.2918489178483	1379.832158987873	204.2246316334813	958.5223080171376	1346.808079875172	273.8389840561203	872.6290952850544	1674.257161890295	981.4886632129082	964.5028755024259	1487.645868038884	388.514914961238	897.7188705361961	1488.895252482818	417.5960428769561	945.2394006289114	1560.699348666391	416.493676957495	880.0536905166299	1562.348177698994	445.3866110885328	925.2063573440824	1791.730456217375	571.7581788259758	834.5245506224697	1732.447160290404	573.1525969416689	874.1308005303696	1779.819701606183	679.8202517737326	816.5369420587112	1722.205396778799	681.2481805448527	853.8210618875041	1849.870259300818	949.8667517441889	1116.606884994634	1880.996008130833	76.13231415949937	1049.95924095007	1710.725131830729	31.00089047759174	984.8084323838908	1724.302252523239	48.37107986677687	1036.484048584469	1720.46783006592	75.0985431481926	988.9246406669949	1802.344597326479	1008.129709993358	1166.725639516123	1923.118133118777	40.89786222771341	1008.085604536543	1866.504500304588	35.73572170242327	1110.727462417495	1671.172903263587	982.3478197463735	1045.571011395185	1781.782719977658	166.1217750714651	1078.272449534628	1760.89978462558	186.2992395409286	1035.581023597158	1798.22662437667	244.7477798691171	1105.837531835206	1772.895190136407	260.9595063870547	1061.716823524211	1851.666841702681	600.7501566922768	1169.971772101497	1793.846079567737	579.4383676591937	1130.577718053631	1803.41593939724	698.3477732119594	1183.484855598002	1749.134272642006	678.5735738076745	1144.91927601248	
2253	15.01333333333333	1848.836742595472	933.1426580033756	903.2016904593315	1377.343110063936	420.8475224852406	1002.920340302809	1386.116115458057	411.0883342992664	947.2489187808885	1422.286306469606	415.1622444951643	988.8962937847982	1803.03406613613	1010.583909189509	852.7602342017835	1392.069613155084	206.5068338463449	957.9071050402272	1360.668795699542	275.1152661813871	870.7698330413197	1671.161957466819	977.0826254978203	964.3050974474389	1501.263723166756	389.8421417798615	896.2752787074922	1502.775409302774	418.939833032268	943.7986590866966	1574.722346483409	416.7370247792753	878.8603885940046	1576.760959586486	445.5719555596714	924.0442141561217	1800.723998156063	569.2120140073418	834.0919774485997	1740.82802662681	568.2791399551226	872.7061197689764	1785.349641847925	676.9174979870443	816.7000594813503	1727.333137442972	676.1453180397284	853.3062126304429	1846.709924953107	946.0297964258938	1117.379201103997	1865.0895574001	76.08112548895753	1050.230854539009	1694.626132582784	31.88271842108036	984.914288789995	1708.293979311404	49.17544155369121	1036.551207715631	1704.589643452185	75.90731844361922	989.0740955769264	1798.809541674101	1002.554117986463	1166.803304611342	1906.922006440468	40.97979637605942	1008.496703557898	1850.271097479826	35.74251478632463	1110.901584723692	1668.219739633923	978.8274646111354	1044.775290484847	1768.993834391223	166.5082334119476	1078.865138562569	1748.497017794826	187.3385733627327	1036.296619492903	1788.00467480696	244.6450666928077	1106.275112210344	1762.694598112401	261.5545198498538	1062.430528270069	1847.97820387552	597.7949707253808	1170.580646207335	1789.994242328617	576.722773061209	1131.300126140261	1800.24387403002	695.5862282087218	1184.211692388594	1745.806847354334	676.0523920978347	1145.766896313629	
2254	15.02	1846.488300610639	927.7695504844692	903.7055752350574	1389.435512233912	422.5212101420931	998.895899307196	1399.186549827908	411.9193222853951	943.7225855987708	1434.613012205983	416.7358016118708	985.8738853526334	1800.109966653401	1004.234530185668	852.2493170712296	1405.528654490488	207.7533744822921	957.6541859440443	1375.443422074554	274.7932196620262	869.0314250726566	1668.186185796028	973.4782560357344	964.1589114208864	1515.157458746136	390.5985736844063	894.7521252719056	1516.697427178283	419.7522706097485	942.2528541557618	1588.884302273693	416.7927712181524	877.7085530645353	1591.074725206923	445.6205831739053	922.8975807689363	1809.808735011326	567.5359734038276	833.7566242535615	1749.347794909459	564.1948852603471	871.3118212622639	1790.885042823116	674.7404718423952	816.933857087841	1732.491471276588	671.6936168660216	852.7860481158515	1843.67246614621	942.4176347571824	1118.282137532872	1849.13634100168	75.93081939703869	1050.841594127225	1678.512777033544	33.03766783087055	985.1378847783208	1692.234434523257	50.03770961351302	1036.807062369068	1688.709911473986	76.9532753264598	989.514353678397	1794.946035960962	997.5837019797457	1166.906037686257	1890.662482472179	41.02636262361842	1009.096883652086	1833.897840246812	35.56182748387728	1111.231668610132	1665.390474703709	975.8323603082212	1043.977214444972	1755.89531255177	166.9819745400847	1079.638688524672	1735.839903149501	188.4050097602642	1037.167180674093	1777.24669326625	244.5958047756972	1106.884507221675	1752.066371578435	262.1956477252559	1063.27142034618	1844.004934160906	595.1688828451904	1171.318304232205	1785.701674557518	574.3828350522737	1132.384953231928	1797.017487221681	693.2556141598068	1185.022967931308	1742.27357516608	673.9994771481876	1146.921722812413	
